<svg xmlns="http://www.w3.org/2000/svg" viewBox="0 0 50.81 63.76"><defs><style>.cls-1,.cls-2,.cls-3{fill:none;stroke:#878787;stroke-miterlimit:10;}.cls-1{stroke-width:1.1px;}.cls-2{stroke-width:1.02px;}.cls-3{stroke-width:0.96px;}.cls-4{fill:#1d1d1b;}</style></defs><g id="Capa_2" data-name="Capa 2"><g id="Pantalla_1" data-name="Pantalla 1"><rect class="cls-1" x="0.55" y="0.55" width="49.71" height="12.63" rx="1.73"/><rect class="cls-2" x="0.55" y="15.94" width="49.71" height="13.41" rx="1.78"/><rect class="cls-3" x="0.55" y="51.45" width="49.71" height="11.84" rx="1.68"/><path class="cls-4" d="M12.27,36.65a6.49,6.49,0,0,1,0-.65h0a4,4,0,0,1-.32.54L10.12,39v0h2.15Z"/><path class="cls-4" d="M22.12,32H1.86A1.83,1.83,0,0,0,0,33.82V47A1.83,1.83,0,0,0,1.86,48.8H22.12A1.83,1.83,0,0,0,24,47V33.82A1.83,1.83,0,0,0,22.12,32Zm-7.34,6.58h.5a5,5,0,0,1,0-.67h-.5v-.59h.61a3.2,3.2,0,0,1,3.13-2.41,4.09,4.09,0,0,1,.93.11l-.22.84a3,3,0,0,0-.73-.1,2.19,2.19,0,0,0-2.14,1.56H19l-.12.59H16.23a2.51,2.51,0,0,0,0,.67h2.49l-.12.58H16.38a2.22,2.22,0,0,0,2.15,1.63,3,3,0,0,0,.84-.12l.18.83a3.52,3.52,0,0,1-1,.15,3.14,3.14,0,0,1-3.13-2.49h-.61Zm-5.66.65,3-4.21h1v4h.88v.78h-.88v1.74h-.9V39.8H9.12ZM6.23,35.77a1.68,1.68,0,0,0-1.32.83l-.67-.45A2.34,2.34,0,0,1,6.3,34.91a1.88,1.88,0,0,1,2.06,1.88c0,2.14-3.11,2.47-3.13,4H8.46v.79H4.26a2.92,2.92,0,0,1,0-.5c0-2.32,3.2-2.66,3.2-4.19A1.08,1.08,0,0,0,6.23,35.77Zm14,11.34H3.76a.58.58,0,0,1,0-1.16h16.5a.58.58,0,1,1,0,1.16Zm0-2.58H3.76A.58.58,0,0,1,3.18,44a.57.57,0,0,1,.58-.57h16.5a.57.57,0,0,1,.58.57A.58.58,0,0,1,20.26,44.53Z"/><path class="cls-4" d="M49,32H28.69a1.83,1.83,0,0,0-1.82,1.82V47a1.83,1.83,0,0,0,1.82,1.82H49A1.83,1.83,0,0,0,50.78,47V33.82A1.83,1.83,0,0,0,49,32Zm-7.34,6.58h.51a3.74,3.74,0,0,1,0-.67h-.51v-.59h.62a3.2,3.2,0,0,1,3.12-2.41,4.13,4.13,0,0,1,.94.11l-.23.84a2.87,2.87,0,0,0-.72-.1,2.19,2.19,0,0,0-2.14,1.56h2.6l-.12.59H43.07a3,3,0,0,0,0,.67h2.5l-.12.58H43.22a2.22,2.22,0,0,0,2.15,1.63,3.11,3.11,0,0,0,.84-.12l.18.83a3.63,3.63,0,0,1-1,.15,3.15,3.15,0,0,1-3.13-2.49h-.61Zm-3.33-3.67c1.39,0,2.44,1.21,2.44,3.08,0,1.67-.92,3.66-2.94,3.66a2.9,2.9,0,0,1-1.26-.26l.29-.8a2.25,2.25,0,0,0,.94.22c1.19,0,1.81-1.1,2-2.19h0a1.83,1.83,0,0,1-1.44.61,2,2,0,0,1-2.06-2.14A2.06,2.06,0,0,1,38.28,34.91Zm-5.42,3.22a2.1,2.1,0,0,0-1.1.32l-.52-.19L31.56,35h3.29v.8h-2.5l-.15,1.37a1.87,1.87,0,0,1-.05.35h0a1.83,1.83,0,0,1,.84-.21,2.13,2.13,0,0,1,2.27,2.13A2.2,2.2,0,0,1,33,41.65a2.52,2.52,0,0,1-2-.9l.5-.67a1.88,1.88,0,0,0,1.44.71,1.36,1.36,0,0,0,1.43-1.33A1.38,1.38,0,0,0,32.86,38.13Zm14.23,9H30.59a.58.58,0,0,1,0-1.16h16.5a.58.58,0,0,1,0,1.16Zm0-2.58H30.59A.58.58,0,0,1,30,44a.57.57,0,0,1,.58-.57h16.5a.57.57,0,0,1,.58.57A.58.58,0,0,1,47.09,44.53Z"/><path class="cls-4" d="M38.43,38.47c.74,0,1.33-.45,1.33-.92a1.74,1.74,0,0,0-1.47-1.8,1.21,1.21,0,0,0-1.2,1.34A1.28,1.28,0,0,0,38.43,38.47Z"/></g></g></svg>